# xmcd CD database file generated by Grip 3.2.0
# 
# Track frame offsets:
#       182
#       21670
#       40987
#       69640
#       88330
#       110240
#       126532
#       158407
#       174337
#       199575
#       221490
#       238600
# 
# Disc length: 3708 seconds
# 
# Revision: 2
# Processed by: cddbd v1.5.2PL0 Copyright (c) Steve Scherf et al.
# Submitted via: Grip 3.2.0
# 
DISCID=b00e7a0c
DTITLE=Jasper and The Vinyl Junkie - Stop and Listen - Volume 2
DYEAR=1997
DGENRE=Funk
TTITLE0=Maceo Parker - Soul Power '74
TTITLE1=Hip Hop Traxx - P.O.W.E.R. (Out Of Sight)
TTITLE2=The Last Mnister - Tribute To J.B. Family
TTITLE3=Poets Of Rhythm - More Mess On My Thing
TTITLE4=P-Funk All Stars - It's Too Funky In Here
TTITLE5=Push - Cut Me Loose
TTITLE6=Elmer and Brenda Parker - Got To Get Back To Louisiana
TTITLE7=Brotherhood - The Monkey That Became President
TTITLE8=Charles Kynard - Zambezi
TTITLE9=Pac-Man - Que Si Que
TTITLE10=Organized Konfusion - Walk Into The Sun
TTITLE11=Steve Arrington - Summertime Lovin'
EXTD=
EXTT0=
EXTT1=
EXTT2=
EXTT3=
EXTT4=
EXTT5=
EXTT6=
EXTT7=
EXTT8=
EXTT9=
EXTT10=
EXTT11=
PLAYORDER=
